<?xml version="1.0" encoding="UTF-8"?>
<!DOCTYPE svg PUBLIC "-//W3C//DTD SVG 1.1//EN" "http://www.w3.org/Graphics/SVG/1.1/DTD/svg11.dtd">
<svg xmlns="http://www.w3.org/2000/svg" version="1.1" width="1024px" height="1024px" style="shape-rendering:geometricPrecision; text-rendering:geometricPrecision; image-rendering:optimizeQuality; fill-rule:evenodd; clip-rule:evenodd" xmlns:xlink="http://www.w3.org/1999/xlink">
<g><path style="opacity:0.99" fill="#000000" d="M 301.5,134.5 C 324.5,135.833 347.5,135.833 370.5,134.5C 379.839,134.666 389.173,134.5 398.5,134C 403.994,133.253 408.66,130.92 412.5,127C 414.5,126.333 416.5,126.333 418.5,127C 441.139,149.75 461.306,174.584 479,201.5C 502.545,249.257 525.545,297.257 548,345.5C 548.83,288.489 549.163,231.489 549,174.5C 563.153,157.014 578.653,140.848 595.5,126C 598.667,125.833 601.833,125.667 605,125.5C 638.978,127.044 672.978,127.71 707,127.5C 736.179,127.275 765.346,127.108 794.5,127C 796.002,127.583 797.335,128.416 798.5,129.5C 799.671,142.544 801.504,155.544 804,168.5C 805.208,252.827 805.875,337.161 806,421.5C 806.105,459.905 807.772,498.239 811,536.5C 814.961,559.991 817.294,583.657 818,607.5C 824.438,648.272 828.771,689.272 831,730.5C 831.333,749.833 831.667,769.167 832,788.5C 834.031,808.116 835.364,827.783 836,847.5C 838.855,855.962 840.189,864.629 840,873.5C 817.558,891.244 799.724,912.744 786.5,938C 778.197,939.018 769.864,939.685 761.5,940C 737.5,940.333 713.5,940.667 689.5,941C 658.85,943.666 628.183,945.666 597.5,947C 594.042,940.582 590.209,934.415 586,928.5C 579.525,914.882 572.525,901.549 565,888.5C 546.086,861.006 527.419,833.339 509,805.5C 496.825,783.976 485.492,761.976 475,739.5C 469.834,732.505 465.167,725.172 461,717.5C 460.333,731.167 460.333,744.833 461,758.5C 463.856,790.47 464.523,822.47 463,854.5C 457,863.167 451,871.833 445,880.5C 426.686,902.468 408.853,924.802 391.5,947.5C 352.205,951.108 312.871,954.275 273.5,957C 229.167,957.667 184.833,957.667 140.5,957C 137.193,954.222 135.026,950.722 134,946.5C 133.782,702.825 132.782,459.158 131,215.5C 130.575,205.069 129.908,194.736 129,184.5C 136.257,179.121 143.423,173.621 150.5,168C 162.768,160.728 174.768,153.061 186.5,145C 185.167,144.333 185.167,143.667 186.5,143C 192.603,139.23 198.937,135.897 205.5,133C 237.469,134.211 269.469,134.711 301.5,134.5 Z"/></g>
<g><path style="opacity:1" fill="#923b3c" d="M 370.5,134.5 C 347.5,135.833 324.5,135.833 301.5,134.5C 324.448,134.297 347.448,134.297 370.5,134.5 Z"/></g>
<g><path style="opacity:1" fill="#ec2e40" d="M 603.5,138.5 C 613.442,139.886 623.442,140.719 633.5,141C 684.522,141.815 735.522,141.649 786.5,140.5C 786.147,149.049 787.314,157.383 790,165.5C 791.191,247.161 791.858,328.827 792,410.5C 792.962,443.502 793.962,476.502 795,509.5C 796.383,530.277 798.716,550.944 802,571.5C 803.035,585.497 804.035,599.497 805,613.5C 810.904,650.621 814.904,687.954 817,725.5C 817.333,744.5 817.667,763.5 818,782.5C 820.098,804.117 821.431,825.783 822,847.5C 823.514,851.496 824.014,855.496 823.5,859.5C 767.999,854.114 712.332,851.947 656.5,853C 651.82,851.321 647.987,848.488 645,844.5C 640.413,836.996 636.08,829.329 632,821.5C 619.548,804.376 607.881,786.709 597,768.5C 582.587,742.005 567.92,715.672 553,689.5C 537.921,660.342 522.588,631.342 507,602.5C 496.941,579.382 486.608,556.382 476,533.5C 469.085,520.663 461.418,508.33 453,496.5C 452.06,491.135 451.06,485.802 450,480.5C 445.982,477.561 442.315,477.895 439,481.5C 438.333,528.5 438.333,575.5 439,622.5C 439.815,646.318 442.149,669.985 446,693.5C 446.743,743.231 448.909,792.898 452.5,842.5C 452.379,843.894 452.046,845.228 451.5,846.5C 444.959,848.104 438.292,848.938 431.5,849C 360.517,851.333 289.517,852 218.5,851C 216.714,850.215 215.214,849.049 214,847.5C 213.662,614.8 213.328,382.134 213,149.5C 274.763,148.669 336.596,148.169 398.5,148C 404.408,147.316 409.908,145.483 415,142.5C 420.928,150.432 427.595,157.765 435,164.5C 445.719,178.219 456.052,192.219 466,206.5C 479.216,235.265 493.216,263.599 508,291.5C 513.65,307.132 520.65,322.132 529,336.5C 536.612,354.667 544.612,372.667 553,390.5C 566.267,414.757 579.933,438.757 594,462.5C 602.281,474.449 610.948,486.115 620,497.5C 620.128,460.833 619.795,424.166 619,387.5C 617.261,367.473 615.261,347.473 613,327.5C 612.149,283.795 610.482,240.128 608,196.5C 606.564,177.146 605.064,157.812 603.5,138.5 Z"/></g>
<g><path style="opacity:1" fill="#19af3e" d="M 588.5,150.5 C 589.927,152.148 590.76,154.148 591,156.5C 592.25,171.838 593.584,187.172 595,202.5C 596.476,245.174 598.143,287.84 600,330.5C 602.261,350.473 604.261,370.473 606,390.5C 606.667,412.5 606.667,434.5 606,456.5C 591.266,431.423 576.933,406.09 563,380.5C 561.463,313.171 561.463,245.837 563,178.5C 571.707,169.296 580.207,159.963 588.5,150.5 Z"/></g>
<g><path style="opacity:1" fill="#19af3e" d="M 197.5,153.5 C 198.264,155.74 199.098,158.073 200,160.5C 200.168,396.027 200.668,631.527 201.5,867C 184.877,889.359 166.71,910.526 147,930.5C 146.935,684.817 145.769,439.15 143.5,193.5C 143.404,190.434 144.404,187.934 146.5,186C 164.477,176.488 181.477,165.654 197.5,153.5 Z"/></g>
<g><path style="opacity:1" fill="#020000" d="M 670.5,235.5 C 674.355,234.845 677.188,236.179 679,239.5C 679.937,244.413 681.103,249.246 682.5,254C 681.253,260.514 677.586,262.18 671.5,259C 667.238,252.785 665.738,245.952 667,238.5C 668.145,237.364 669.312,236.364 670.5,235.5 Z"/></g>
<g><path style="opacity:1" fill="#030000" d="M 290.5,265.5 C 296.028,264.069 299.362,266.069 300.5,271.5C 298.876,279.354 296.876,287.021 294.5,294.5C 287.428,297.42 283.761,295.087 283.5,287.5C 284.218,281.743 285.385,276.076 287,270.5C 287.697,268.416 288.864,266.749 290.5,265.5 Z"/></g>
<g><path style="opacity:1" fill="#030000" d="M 752.5,324.5 C 758.693,323.413 762.027,325.913 762.5,332C 761.707,338.339 760.207,344.506 758,350.5C 755.871,355.332 752.371,356.665 747.5,354.5C 746.112,352.891 745.112,351.058 744.5,349C 746.725,341.935 748.558,334.768 750,327.5C 751.045,326.627 751.878,325.627 752.5,324.5 Z"/></g>
<g><path style="opacity:1" fill="#020000" d="M 440.5,351.5 C 443.617,351.642 446.117,352.976 448,355.5C 448.667,362.167 448.667,368.833 448,375.5C 443.902,380.804 439.902,380.804 436,375.5C 435.333,368.833 435.333,362.167 436,355.5C 437.25,353.807 438.75,352.473 440.5,351.5 Z"/></g>
<g><path style="opacity:1" fill="#030000" d="M 671.5,396.5 C 677.499,397.166 680.166,400.499 679.5,406.5C 680.369,411.799 678.203,415.132 673,416.5C 667.581,415.336 665.414,412.003 666.5,406.5C 665.587,401.776 667.254,398.443 671.5,396.5 Z"/></g>
<g><path style="opacity:1" fill="#010000" d="M 335.5,405.5 C 339.684,404.704 342.85,406.037 345,409.5C 345.667,414.167 345.667,418.833 345,423.5C 342.947,427.292 339.781,428.458 335.5,427C 334.667,426.167 333.833,425.333 333,424.5C 332.333,419.167 332.333,413.833 333,408.5C 334.045,407.627 334.878,406.627 335.5,405.5 Z"/></g>
<g><path style="opacity:1" fill="#020000" d="M 524.5,485.5 C 527.862,485.07 530.695,486.07 533,488.5C 533.667,494.5 533.667,500.5 533,506.5C 530.947,510.292 527.781,511.458 523.5,510C 522.667,509.167 521.833,508.333 521,507.5C 520.333,501.5 520.333,495.5 521,489.5C 521.69,487.65 522.856,486.316 524.5,485.5 Z"/></g>
<g><path style="opacity:1" fill="#050101" d="M 696.5,511.5 C 703.417,511.975 705.917,515.642 704,522.5C 700.013,524.821 696.179,527.321 692.5,530C 686.748,532.458 683.082,530.624 681.5,524.5C 682.493,520.999 684.493,518.166 687.5,516C 690.648,514.576 693.648,513.076 696.5,511.5 Z"/></g>
<g><path style="opacity:1" fill="#19b03e" d="M 451.5,519.5 C 457.73,528.276 463.23,537.609 468,547.5C 483.624,587.066 502.291,625.066 524,661.5C 541.564,695.398 559.564,729.065 578,762.5C 591.817,786.639 606.817,809.972 623,832.5C 627.219,842.448 633.052,851.281 640.5,859C 626.445,880.283 612.778,901.783 599.5,923.5C 593.015,911.198 586.515,898.865 580,886.5C 560.667,857.833 541.333,829.167 522,800.5C 509.63,779.096 498.297,757.096 488,734.5C 478.07,718.968 468.403,703.301 459,687.5C 455.017,664.67 452.684,641.67 452,618.5C 451.5,585.502 451.333,552.502 451.5,519.5 Z"/></g>
<g><path style="opacity:1" fill="#030000" d="M 305.5,537.5 C 308.97,536.875 311.804,537.875 314,540.5C 316.245,545.997 319.245,550.997 323,555.5C 326.065,566.105 322.565,569.272 312.5,565C 307.791,558.584 304.124,551.584 301.5,544C 302.226,541.366 303.559,539.199 305.5,537.5 Z"/></g>
<g><path style="opacity:1" fill="#040000" d="M 619.5,600.5 C 622.862,600.07 625.695,601.07 628,603.5C 628.368,610.567 630.701,616.9 635,622.5C 635.658,630.51 632.158,633.343 624.5,631C 618.252,623.256 615.419,614.423 616,604.5C 616.69,602.65 617.856,601.316 619.5,600.5 Z"/></g>
<g><path style="opacity:1" fill="#030000" d="M 751.5,645.5 C 753.857,645.337 756.19,645.503 758.5,646C 761.335,649.866 764.502,653.366 768,656.5C 771.081,664.754 768.248,668.254 759.5,667C 752.453,662.67 748.953,656.503 749,648.5C 750.045,647.627 750.878,646.627 751.5,645.5 Z"/></g>
<g><path style="opacity:1" fill="#020000" d="M 405.5,690.5 C 410.133,689.458 413.299,691.125 415,695.5C 415.747,702.882 415.414,710.215 414,717.5C 410,722.833 406,722.833 402,717.5C 401.333,710.167 401.333,702.833 402,695.5C 402.997,693.677 404.164,692.01 405.5,690.5 Z"/></g>
<g><path style="opacity:1" fill="#020000" d="M 262.5,733.5 C 266.273,732.822 269.106,734.156 271,737.5C 272.393,741.286 274.059,744.952 276,748.5C 276.098,756.035 272.598,758.535 265.5,756C 260.581,750.348 258.414,743.848 259,736.5C 260.145,735.364 261.312,734.364 262.5,733.5 Z"/></g>
<g><path style="opacity:1" fill="#020000" d="M 699.5,757.5 C 703.355,756.845 706.188,758.179 708,761.5C 708.667,765.833 708.667,770.167 708,774.5C 706.542,780.059 703.042,781.892 697.5,780C 696.667,779.167 695.833,778.333 695,777.5C 694.814,772.16 695.148,766.826 696,761.5C 696.69,759.65 697.856,758.316 699.5,757.5 Z"/></g>
<g><path style="opacity:1" fill="#19b03e" d="M 437.5,861.5 C 438.873,861.343 440.207,861.51 441.5,862C 422.452,885.379 403.786,909.046 385.5,933C 385.957,933.414 386.291,933.914 386.5,934.5C 350.508,937.423 314.508,940.257 278.5,943C 237.163,943.833 195.829,943.667 154.5,942.5C 173.597,922.575 191.764,901.908 209,880.5C 210.552,874.551 213.719,869.717 218.5,866C 291.702,866.342 364.702,864.842 437.5,861.5 Z"/></g>
<g><path style="opacity:1" fill="#19b03e" d="M 650.5,866.5 C 706.672,864.811 762.672,866.977 818.5,873C 802.538,888.953 788.872,906.62 777.5,926C 722.488,924.807 667.655,927.307 613,933.5C 612.167,933.167 611.333,932.833 610.5,932.5C 623.856,910.444 637.189,888.444 650.5,866.5 Z"/></g>
</svg>
